<svg width="20px" height="18px" viewBox="0 0 20 18" version="1.1" xmlns="http://www.w3.org/2000/svg" xmlns:xlink="http://www.w3.org/1999/xlink">
    <!-- Generator: Sketch 47.1 (45422) - http://www.bohemiancoding.com/sketch -->
    <desc>Created with Sketch.</desc>
    <defs></defs>
    <g id="Page-1" stroke="none" stroke-width="1" fill="none" fill-rule="evenodd">
        <g id="Desktop-HD-Copy-2" transform="translate(-663.000000, -1095.000000)" fill-rule="nonzero" fill="#000000">
            <g id="Group-11" transform="translate(599.000000, 1092.000000)">
                <g id="gabe" transform="translate(64.000000, 3.000000)">
                    <path d="M18.6666667,1.63636364 C17.8,0.605454545 16.5833333,0.0818181818 15,0 C13.3833333,0 12.1833333,0.687272727 11.3333333,1.63636364 C10.4833333,2.58545455 10.0333333,3.14181818 10,3.27272727 C9.96666667,3.14181818 9.53333333,2.58545455 8.66666667,1.63636364 C7.8,0.687272727 6.71666667,0 5,0 C3.41666667,0.0818181818 2.18333333,0.621818182 1.33333333,1.63636364 C0.466666667,2.63454545 0.0333333333,3.73090909 0,4.90909091 C0,5.76 0.15,7.39636364 1.11666667,9.27818182 C2.08333333,11.16 5.01666667,14.0890909 10,18 C14.9666667,14.0890909 17.95,11.1763636 18.9,9.27818182 C19.85,7.38 20,5.72727273 20,4.90909091 C19.9666667,3.73090909 19.5333333,2.63454545 18.6666667,1.60363636 L18.6666667,1.63636364 Z" id="Shape"></path>
                </g>
            </g>
        </g>
    </g>
</svg>
