<svg width="19px" height="19px" viewBox="0 0 19 19" version="1.1" xmlns="http://www.w3.org/2000/svg" xmlns:xlink="http://www.w3.org/1999/xlink">
    <!-- Generator: Sketch 47.1 (45422) - http://www.bohemiancoding.com/sketch -->
    <desc>Created with Sketch.</desc>
    <defs></defs>
    <g id="Page-1" stroke="none" stroke-width="1" fill="none" fill-rule="evenodd">
        <g id="Desktop-HD-Copy-2" transform="translate(-599.000000, -1094.000000)" fill-rule="nonzero" fill="#000000">
            <g id="Group-11" transform="translate(599.000000, 1092.000000)">
                <g id="gabe" transform="translate(0.000000, 2.000000)">
                    <path d="M0,14.8064937 L0,19 L4.19348906,19 L15.3761265,7.81731647 L11.1826375,3.62381015 L0,14.8064937 Z M4.19348906,17.6021646 L1.39782969,17.6021646 L1.39782969,14.8064937 L2.79565937,14.8064937 L2.79565937,16.2043291 L4.19348906,16.2043291 L4.19348906,17.6021646 Z M18.5911348,4.60229496 L16.7739562,6.41948103 L12.5804672,2.22597471 L14.3976458,0.408788633 C14.6588227,0.147074574 15.0133765,0 15.3831157,0 C15.7528549,0 16.1074087,0.147074574 16.3685856,0.408788633 L18.5911348,2.63134698 C19.1362884,3.17650281 19.1362884,4.05713913 18.5911348,4.60229496 L18.5911348,4.60229496 Z" id="Shape"></path>
                </g>
            </g>
        </g>
    </g>
</svg>
