<svg width="21px" height="21px" viewBox="0 0 21 21" version="1.1" xmlns="http://www.w3.org/2000/svg" xmlns:xlink="http://www.w3.org/1999/xlink">
    <!-- Generator: Sketch 47.1 (45422) - http://www.bohemiancoding.com/sketch -->
    <desc>Created with Sketch.</desc>
    <defs></defs>
    <g id="Page-1" stroke="none" stroke-width="1" fill="none" fill-rule="evenodd">
        <g id="Desktop-HD" transform="translate(-998.000000, -526.000000)" fill="#3a3a3a">
            <g id="Group-3" transform="translate(403.000000, 512.000000)">
                <path d="M602.76087,26.7826087 C599.982174,26.7826087 597.73913,24.5395652 597.73913,21.7608696 C597.73913,18.9821739 599.982174,16.7391304 602.76087,16.7391304 C605.539565,16.7391304 607.782609,18.9821739 607.782609,21.7608696 C607.782609,24.5395652 605.539565,26.7826087 602.76087,26.7826087 L602.76087,26.7826087 Z M610.008576,27.2075472 L609.060034,27.2075472 L608.723842,26.8833619 C609.900515,25.5145798 610.608919,23.7375643 610.608919,21.8044597 C610.608919,17.4939966 607.114923,14 602.80446,14 C598.493997,14 595,17.4939966 595,21.8044597 C595,26.1149228 598.493997,29.6089194 602.80446,29.6089194 C604.737564,29.6089194 606.51458,28.9005146 607.883362,27.7238422 L608.207547,28.0600343 L608.207547,29.0085763 L614.210978,35 L616,33.2109777 L610.008576,27.2075472 Z" id="search"></path>
            </g>
        </g>
    </g>
</svg>
