<svg width="10px" height="14px" viewBox="0 0 10 14" version="1.1" xmlns="http://www.w3.org/2000/svg" xmlns:xlink="http://www.w3.org/1999/xlink">
    <!-- Generator: Sketch 47.1 (45422) - http://www.bohemiancoding.com/sketch -->
    <desc>Created with Sketch.</desc>
    <defs></defs>
    <g id="Page-1" stroke="none" stroke-width="1" fill="none" fill-rule="evenodd">
        <g id="Group-8" transform="translate(0.000000, -4.000000)" fill-rule="nonzero" fill="#E2E2E2">
            <g id="gabe" transform="translate(0.000000, 4.000000)">
                <path d="M8,-3.38813179e-21 C7.09660216,-0.00238695453 6.3045861,0.603179379 6.07006224,1.47560813 C5.83553838,2.34803688 6.21717019,3.26909995 7,3.72 L7,5 L5,7 L3,5 L3,3.72 C3.78282981,3.26909995 4.16446162,2.34803688 3.92993776,1.47560813 C3.6954139,0.603179379 2.90339784,-0.00238695453 2,-4.44090904e-16 C1.09660216,-0.00238695453 0.304586097,0.603179379 0.0700622397,1.47560813 C-0.164461618,2.34803688 0.217170191,3.26909995 1,3.72 L1,5.5 L4,8.5 L4,10.28 C3.21717019,10.7309 2.83553838,11.6519631 3.07006224,12.5243919 C3.3045861,13.3968206 4.09660216,14.002387 5,14 C5.90339784,14.002387 6.6954139,13.3968206 6.92993776,12.5243919 C7.16446162,11.6519631 6.78282981,10.7309 6,10.28 L6,8.5 L9,5.5 L9,3.72 C9.78282981,3.26909995 10.1644616,2.34803688 9.92993776,1.47560813 C9.6954139,0.603179379 8.90339784,-0.00238695453 8,-3.38813179e-21 Z M2,3.2 C1.34,3.2 0.8,2.65 0.8,2 C0.8,1.35 1.35,0.8 2,0.8 C2.65,0.8 3.2,1.35 3.2,2 C3.2,2.65 2.65,3.2 2,3.2 Z M5,13.2 C4.34,13.2 3.8,12.65 3.8,12 C3.8,11.35 4.35,10.8 5,10.8 C5.65,10.8 6.2,11.35 6.2,12 C6.2,12.65 5.65,13.2 5,13.2 Z M8,3.2 C7.34,3.2 6.8,2.65 6.8,2 C6.8,1.35 7.35,0.8 8,0.8 C8.65,0.8 9.2,1.35 9.2,2 C9.2,2.65 8.65,3.2 8,3.2 L8,3.2 Z" id="Shape"></path>
            </g>
        </g>
    </g>
</svg>
