<svg width="14px" height="14px" viewBox="0 0 14 14" version="1.1" xmlns="http://www.w3.org/2000/svg" xmlns:xlink="http://www.w3.org/1999/xlink">
    <!-- Generator: Sketch 47.1 (45422) - http://www.bohemiancoding.com/sketch -->
    <desc>Created with Sketch.</desc>
    <defs></defs>
    <g id="Page-1" stroke="none" stroke-width="1" fill="none" fill-rule="evenodd">
        <g id="Group-8" transform="translate(-105.000000, -4.000000)" fill-rule="nonzero" fill="#DDDDDD">
            <g id="pullrequest" transform="translate(105.000000, 4.000000)">
                <path d="M7,1.3 C10.14,1.3 12.7,3.86 12.7,7 C12.7,10.14 10.14,12.7 7,12.7 C3.85425973,12.6944956 1.30550437,10.1457403 1.3,7 C1.3,3.86 3.86,1.3 7,1.3 Z M7,0 C3.14,0 0,3.14 0,7 C0,10.86 3.14,14 7,14 C10.86,14 14,10.86 14,7 C14,3.14 10.86,0 7,0 Z M8,3 L6,3 L6,8 L8,8 L8,3 Z M8,9 L6,9 L6,11 L8,11 L8,9 Z" id="Shape"></path>
            </g>
        </g>
    </g>
</svg>
