<svg width="204px" height="57px" viewBox="0 0 204 57" version="1.1" xmlns="http://www.w3.org/2000/svg" xmlns:xlink="http://www.w3.org/1999/xlink">
    <!-- Generator: Sketch 47.1 (45422) - http://www.bohemiancoding.com/sketch -->
    <desc>Created with Sketch.</desc>
    <defs></defs>
    <g id="Page-1" stroke="none" stroke-width="1" fill="none" fill-rule="evenodd">
        <g id="Desktop-HD" transform="translate(-618.000000, -359.000000)" fill="#11110F">
            <g id="Logo" transform="translate(618.000000, 359.000000)">
                <g id="Group-2">
                    <path d="M38.968435,24.0270737 L21.9667539,24.0270737 C21.528048,24.0270737 21.1724771,24.3918799 21.1724771,24.8425568 L21.1724771,33.3708396 C21.1724771,33.8203639 21.528048,34.1868991 21.9667539,34.1868991 L28.5990217,34.1868991 L28.5990217,44.7824173 C28.5990217,44.7824173 27.1098931,45.3034044 22.9924608,45.3034044 C18.1352389,45.3034044 11.3496206,43.482831 11.3496206,28.1736471 C11.3496206,12.8615817 18.4155388,10.8467908 25.04893,10.8467908 C30.791428,10.8467908 33.264696,11.8835782 34.8392066,12.3838181 C35.3340849,12.5388463 35.7913277,12.0339959 35.7913277,11.583319 L37.6877058,3.34376919 C37.6877058,3.13283856 37.6180521,2.87868444 37.3843751,2.7069431 C36.7451339,2.23897679 32.8450886,0 22.9924608,0 C11.6428402,0 0,4.95398827 0,28.7707076 C0,52.5874269 13.3296955,56.1363636 24.5624776,56.1363636 C33.8629314,56.1363636 39.5048808,52.0589477 39.5048808,52.0589477 C39.7374343,51.926972 39.7627119,51.593863 39.7627119,51.44114 L39.7627119,24.8425568 C39.7627119,24.3918799 39.407141,24.0270737 38.968435,24.0270737" id="Fill-11"></path>
                    <path d="M127.932203,2.56746607 C127.932203,2.1174013 127.574097,1.75426136 127.125316,1.75426136 L117.345105,1.75426136 C116.89862,1.75426136 116.535348,2.1174013 116.535348,2.56746607 C116.535348,2.56975357 116.538218,21.4021335 116.538218,21.4021335 L101.292865,21.4021335 L101.292865,2.56746607 C101.292865,2.1174013 100.93361,1.75426136 100.485977,1.75426136 L90.7063403,1.75426136 C90.2615766,1.75426136 89.8983051,2.1174013 89.8983051,2.56746607 L89.8983051,53.5660382 C89.8983051,54.016103 90.2615766,54.3821023 90.7063403,54.3821023 L100.485977,54.3821023 C100.93361,54.3821023 101.292865,54.016103 101.292865,53.5660382 L101.292865,31.7524795 L116.538218,31.7524795 C116.538218,31.7524795 116.511245,53.5643226 116.511245,53.5660382 C116.511245,54.016103 116.873942,54.3821023 117.321576,54.3821023 L127.124742,54.3821023 C127.572949,54.3821023 127.931056,54.016103 127.932203,53.5660382 L127.932203,2.56746607" id="Fill-13"></path>
                    <g id="Group" transform="translate(44.949153, 3.508523)">
                        <path d="M12.1016949,6.57670199 C12.1016949,2.93924524 9.39303417,0 6.05057213,0 C2.71141401,0 0,2.93924524 0,6.57670199 C0,10.2100098 2.71141401,13.1569602 6.05057213,13.1569602 C9.39303417,13.1569602 12.1016949,10.2100098 12.1016949,6.57670199" id="Fill-14"></path>
                        <path d="M11.2949153,16.6217877 C11.2949153,16.1631343 10.9619334,15.7883523 10.5508513,15.7883523 L1.58567215,15.7883523 C1.17459,15.7883523 0.806779661,16.259909 0.806779661,16.7185624 C0.806779661,16.7185624 0.806779661,45.7709136 0.806779661,51.3087724 C0.806779661,52.6404031 0.81757109,52.6278409 2.11390479,52.6278409 C2.11390479,52.6278409 5.94082098,52.6278409 10.1909565,52.6278409 C11.275823,52.6278409 11.2949153,52.6070779 11.2949153,51.2923501 C11.2949153,49.4433437 11.2949153,42.1750004 11.2949153,40.7656089 C11.2949153,39.4248394 11.2949153,16.6217877 11.2949153,16.6217877 Z" id="Fill-15"></path>
                    </g>
                    <path d="M165.161176,19.296875 L155.554892,19.296875 C155.114654,19.296875 154.755646,19.6617355 154.755646,20.110531 L154.755646,45.0780649 C154.755646,45.0780649 152.314738,46.872676 148.850773,46.872676 C145.387375,46.872676 144.468271,45.2927559 144.468271,41.8839655 C144.468271,38.4706072 144.468271,20.110531 144.468271,20.110531 C144.468271,19.6617355 144.1104,19.296875 143.669026,19.296875 L133.919026,19.296875 C133.479355,19.296875 133.118644,19.6617355 133.118644,20.110531 C133.118644,20.110531 133.118644,33.4065265 133.118644,43.532404 C133.118644,53.6588525 138.733245,56.1363636 146.457012,56.1363636 C152.794172,56.1363636 157.903208,52.6173728 157.903208,52.6173728 C157.903208,52.6173728 158.146333,54.4719375 158.256535,54.6917674 C158.366169,54.9110263 158.653033,55.1325691 158.963188,55.1325691 L165.16572,55.1045907 C165.60539,55.1045907 165.966102,54.7391593 165.966102,54.2920767 L165.962693,20.110531 C165.962693,19.6617355 165.604254,19.296875 165.161176,19.296875" id="Fill-16"></path>
                    <path d="M186.384181,46.7415626 C182.997056,46.6383422 180.699516,45.0946745 180.699516,45.0946745 L180.699516,28.7179955 C180.699516,28.7179955 182.965876,27.3227797 185.746713,27.073427 C189.263179,26.7573868 192.651458,27.8238049 192.651458,36.2484496 C192.651458,45.1317874 191.12246,46.8853754 186.384181,46.7415626 Z M190.235548,17.6049799 C184.689463,17.6049799 180.917202,20.0903893 180.917202,20.0903893 L180.917202,2.57886522 C180.917202,2.12249164 180.55343,1.75426136 180.105355,1.75426136 L170.236731,1.75426136 C169.788079,1.75426136 169.423729,2.12249164 169.423729,2.57886522 L169.423729,54.2923128 C169.423729,54.7486864 169.788079,55.1198161 170.237886,55.1198161 C170.239041,55.1198161 177.08258,55.1198161 177.08489,55.1198161 C177.39323,55.1198161 177.626506,54.9603463 177.799154,54.6808393 C177.969491,54.4030719 178.214893,52.2963308 178.214893,52.2963308 C178.214893,52.2963308 182.249879,56.1363636 189.888521,56.1363636 C198.856952,56.1363636 204,51.5679887 204,35.628547 C204,19.6879455 195.785674,17.6049799 190.235548,17.6049799 L190.235548,17.6049799 Z" id="Fill-17"></path>
                    <path d="M83.8113976,19.0380695 L76.8304591,19.0380695 C76.8304591,19.0380695 76.8200838,9.32471219 76.8200838,9.32298639 C76.8200838,8.9548165 76.6398813,8.77130682 76.2363367,8.77130682 L66.7238251,8.77130682 C66.3535908,8.77130682 66.1553679,8.94273592 66.1553679,9.31723374 L66.1553679,19.3567665 C66.1553679,19.3567665 61.3881908,20.5694261 61.0654643,20.6672212 C60.7449222,20.7650164 60.5084746,21.0768102 60.5084746,21.449007 L60.5084746,27.7579433 C60.5084746,28.2118277 60.8524977,28.5776966 61.277885,28.5776966 L66.1553679,28.5776966 C66.1553679,28.5776966 66.1553679,35.1765666 66.1553679,43.7555004 C66.1553679,55.0289776 73.6616242,56.1363636 78.7264086,56.1363636 C81.0411926,56.1363636 83.8097594,55.3534273 84.2668187,55.1756703 C84.5431293,55.0686709 84.7036734,54.7666566 84.7036734,54.4399058 L84.7118644,47.4999033 C84.7118644,47.0471694 84.3487289,46.6807253 83.9402698,46.6807253 C83.5329027,46.6807253 82.4926424,46.8550307 81.4212562,46.8550307 C77.9919466,46.8550307 76.8304591,45.1752556 76.8304591,43.0013274 C76.8304591,40.829125 76.8299131,28.5776966 76.8299131,28.5776966 L83.8113976,28.5776966 C84.2367849,28.5776966 84.5813541,28.2118277 84.5813541,27.7579433 L84.5813541,19.8555217 C84.5813541,19.4027878 84.2367849,19.0380695 83.8113976,19.0380695" id="Fill-18"></path>
                </g>
            </g>
        </g>
    </g>
</svg>
