<svg width="12px" height="15px" viewBox="0 0 12 15" version="1.1" xmlns="http://www.w3.org/2000/svg" xmlns:xlink="http://www.w3.org/1999/xlink">
    <!-- Generator: Sketch 47.1 (45422) - http://www.bohemiancoding.com/sketch -->
    <desc>Created with Sketch.</desc>
    <defs></defs>
    <g id="Page-1" stroke="none" stroke-width="1" fill="none" fill-rule="evenodd">
        <g id="Group-8" transform="translate(-72.000000, -4.000000)" fill-rule="nonzero" fill="#E2E2E2">
            <g id="pullrequest" transform="translate(72.000000, 4.000000)">
                <path d="M10.9984476,11.28 L10.9984476,5 C10.9684476,4.22 10.6584476,3.53 10.0584476,2.94 C9.45844765,2.35 8.77844765,2.03 7.99844765,2 L6.99844765,2 L6.99844765,0 L3.99844765,3 L6.99844765,6 L6.99844765,4 L7.99844765,4 C8.26844765,4.02 8.47844765,4.11 8.68844765,4.31 C8.89844765,4.51 8.98844765,4.73 8.99844765,5 L8.99844765,11.28 C8.21561784,11.7309 7.83398603,12.6519631 8.06850989,13.5243919 C8.30303375,14.3968206 9.0950498,15.002387 9.99844765,15 C10.9018455,15.002387 11.6938616,14.3968206 11.9283854,13.5243919 C12.1629093,12.6519631 11.7812775,11.7309 10.9984476,11.28 Z M9.99844765,14.2 C9.33844765,14.2 8.79844765,13.65 8.79844765,13 C8.79844765,12.35 9.34844765,11.8 9.99844765,11.8 C10.6484476,11.8 11.1984476,12.35 11.1984476,13 C11.1984476,13.65 10.6484476,14.2 9.99844765,14.2 Z M3.99844765,3 C3.99844765,1.89 3.10844765,1 1.99844765,1 C1.0950498,0.997613045 0.303033746,1.60317938 0.0685098888,2.47560813 C-0.166013969,3.34803688 0.21561784,4.26909995 0.998447649,4.72 L0.998447649,11.28 C0.21561784,11.7309 -0.166013969,12.6519631 0.0685098888,13.5243919 C0.303033746,14.3968206 1.0950498,15.002387 1.99844765,15 C2.90184549,15.002387 3.69386155,14.3968206 3.92838541,13.5243919 C4.16290927,12.6519631 3.78127746,11.7309 2.99844765,11.28 L2.99844765,4.72 C3.58844765,4.38 3.99844765,3.74 3.99844765,3 Z M3.19844765,13 C3.19844765,13.66 2.64844765,14.2 1.99844765,14.2 C1.34844765,14.2 0.798447649,13.65 0.798447649,13 C0.798447649,12.35 1.34844765,11.8 1.99844765,11.8 C2.64844765,11.8 3.19844765,12.35 3.19844765,13 Z M1.99844765,4.2 C1.33844765,4.2 0.798447649,3.65 0.798447649,3 C0.798447649,2.35 1.34844765,1.8 1.99844765,1.8 C2.64844765,1.8 3.19844765,2.35 3.19844765,3 C3.19844765,3.65 2.64844765,4.2 1.99844765,4.2 Z" id="Shape"></path>
            </g>
        </g>
    </g>
</svg>
